<?xml version="1.0" standalone="no"?>
<!DOCTYPE svg PUBLIC "-//W3C//DTD SVG 20010904//EN"
 "http://www.w3.org/TR/2001/REC-SVG-20010904/DTD/svg10.dtd">
<svg version="1.0" xmlns="http://www.w3.org/2000/svg"
 width="280.000000pt" height="334.000000pt" viewBox="0 0 280.000000 334.000000"
 preserveAspectRatio="xMidYMid meet">

<g transform="translate(0.000000,334.000000) scale(0.100000,-0.100000)"
fill="#000000" stroke="none">
<path d="M1230 3194 c-292 -37 -545 -159 -746 -359 -238 -237 -364 -542 -364
-880 0 -258 70 -486 215 -705 64 -96 218 -251 318 -318 372 -255 839 -291
1243 -97 738 356 936 1320 397 1937 -177 203 -406 338 -673 399 -83 19 -315
32 -390 23z m-98 -765 c114 -38 188 -106 242 -219 29 -61 31 -72 30 -180 0
-96 -4 -125 -24 -175 -98 -252 -353 -429 -591 -411 -146 12 -239 57 -239 117
0 21 7 32 30 44 16 8 35 15 43 15 10 0 17 17 21 54 4 30 29 116 56 193 26 76
68 194 92 263 23 69 44 126 45 128 0 2 19 -6 41 -17 69 -35 87 -78 56 -136
-47 -89 -204 -467 -204 -490 0 -2 21 -13 46 -24 56 -25 51 -46 -7 -26 -39 14
-41 14 -46 -5 -7 -25 -13 -25 -54 3 -37 24 -79 25 -79 1 0 -23 83 -55 160 -61
239 -20 458 133 540 378 22 64 27 180 10 239 -27 99 -113 178 -217 201 -141
32 -365 -59 -510 -208 -32 -32 -60 -53 -68 -49 -23 8 -46 52 -52 96 -5 39 -3
44 44 89 59 56 265 163 358 185 91 22 204 20 277 -5z m1104 -30 c27 -14 55
-36 63 -50 13 -23 10 -32 -32 -119 -26 -52 -52 -122 -60 -155 -12 -58 -14 -60
-42 -57 -41 4 -71 26 -91 63 -19 38 -13 81 21 156 l24 53 -25 6 c-37 10 -151
-22 -214 -59 -30 -17 -91 -68 -136 -112 -130 -130 -192 -276 -182 -431 10
-152 94 -203 263 -159 146 38 282 158 351 310 14 30 30 55 35 55 19 0 8 -50
-27 -119 -85 -170 -277 -309 -453 -327 -103 -11 -195 48 -245 155 -26 59 -28
197 -3 291 52 194 205 390 371 474 86 43 142 56 242 53 74 -2 100 -7 140 -28z"/>
<path d="M1041 568 c-5 -14 -13 -42 -16 -61 -4 -20 -13 -38 -21 -41 -8 -3 -14
-10 -14 -16 0 -6 5 -8 11 -4 8 5 9 -9 4 -47 -8 -60 -28 -99 -50 -99 -23 0 -18
38 12 76 24 32 25 37 11 51 -23 23 -55 1 -69 -48 -23 -77 15 -122 70 -81 23
16 28 17 40 5 7 -8 18 -12 24 -10 15 5 52 67 40 67 -6 0 -15 -11 -21 -25 -26
-57 -41 -6 -25 88 4 27 13 42 29 49 13 6 24 15 24 20 0 5 -9 4 -20 -2 -23 -12
-24 -9 -9 44 13 47 -4 76 -20 34z m-81 -184 c-18 -21 -24 -10 -9 18 8 14 14
18 17 10 2 -7 -2 -19 -8 -28z"/>
<path d="M784 526 c-43 -43 -43 -69 -3 -147 35 -67 34 -99 -6 -125 -57 -38
-77 27 -24 77 17 16 26 29 19 29 -21 0 -70 -58 -70 -83 0 -26 28 -57 51 -57
30 0 77 39 89 74 12 39 6 58 -36 109 -31 37 -32 86 -1 115 46 43 96 17 63 -33
-18 -27 -20 -35 -8 -35 5 0 16 16 25 36 36 75 -35 104 -99 40z"/>
<path d="M1197 523 c-3 -5 -6 -68 -8 -140 -4 -139 6 -170 27 -86 25 95 78 193
105 193 16 0 20 -63 9 -113 -26 -107 -69 -157 -90 -104 -8 21 -9 21 -9 2 -2
-50 56 -61 87 -17 21 29 52 112 52 138 0 10 10 3 28 -17 29 -35 29 -35 31 -74
2 -36 47 -46 71 -15 15 19 18 20 23 6 8 -20 37 -21 62 -2 17 12 21 12 33 -5
16 -23 55 -25 72 -4 11 13 14 13 27 0 8 -8 25 -15 38 -15 45 0 60 70 27 118
-10 15 -22 35 -25 44 -8 22 12 35 24 17 7 -11 9 -9 9 7 0 26 -27 39 -46 23
-19 -16 -17 -43 6 -89 24 -46 25 -73 5 -90 -17 -14 -35 -5 -35 18 0 9 -14 37
-30 62 -31 46 -37 74 -20 85 6 3 10 -2 10 -11 0 -14 3 -15 12 -6 16 16 -12 45
-35 36 -31 -11 -31 -50 -2 -100 23 -39 25 -50 16 -71 -18 -39 -46 -26 -45 20
l1 38 -24 -36 c-13 -19 -30 -35 -37 -35 -26 0 -24 27 5 70 22 33 26 46 18 56
-6 8 -18 14 -25 14 -17 0 -54 -57 -54 -82 0 -27 -22 -68 -37 -68 -9 0 -13 13
-13 39 0 31 -4 41 -20 46 -16 5 -19 12 -14 33 7 29 7 30 5 50 -1 14 -41 17
-41 2 0 -23 -18 -8 -23 20 -5 23 -12 30 -30 30 -36 0 -67 -28 -93 -84 l-24
-51 0 78 c0 67 -9 94 -23 70z m210 -105 c-3 -8 -6 -5 -6 6 -1 11 2 17 5 13 3
-3 4 -12 1 -19z m163 -34 c-18 -21 -24 -10 -9 18 8 14 14 18 17 10 2 -7 -2
-19 -8 -28z"/>
<path d="M1916 454 c-10 -25 -7 -59 6 -72 15 -15 -30 -84 -52 -80 -24 5 -23
33 5 66 29 35 32 60 8 69 -27 11 -63 -41 -63 -91 0 -74 39 -87 89 -31 17 19
34 35 38 35 4 0 9 -14 11 -32 7 -61 53 -66 82 -8 22 43 24 50 12 50 -4 0 -14
-16 -21 -35 -17 -49 -41 -46 -41 4 0 31 -4 41 -20 46 -16 5 -19 12 -14 33 7
29 7 30 5 50 -2 18 -38 15 -45 -4z m21 -36 c-3 -8 -6 -5 -6 6 -1 11 2 17 5 13
3 -3 4 -12 1 -19z m-58 -30 c-8 -14 -14 -18 -17 -10 -4 13 17 46 25 38 3 -2
-1 -15 -8 -28z"/>
</g>
</svg>
