<?xml version="1.0" standalone="no"?>
<!DOCTYPE svg PUBLIC "-//W3C//DTD SVG 20010904//EN"
 "http://www.w3.org/TR/2001/REC-SVG-20010904/DTD/svg10.dtd">
<svg version="1.0" xmlns="http://www.w3.org/2000/svg"
 width="1012.000000pt" height="1029.000000pt" viewBox="0 0 1012.000000 1029.000000"
 preserveAspectRatio="xMidYMid meet">

<g transform="translate(0.000000,1029.000000) scale(0.100000,-0.100000)"
fill="#000000" stroke="none">
<path d="M4915 10249 c-38 -5 -160 -14 -270 -20 -110 -6 -201 -15 -203 -20 -2
-5 -32 -9 -67 -9 -37 0 -65 -5 -67 -11 -2 -6 -46 -15 -98 -20 -52 -6 -104 -14
-115 -19 -23 -10 -70 -19 -135 -26 -25 -3 -52 -8 -60 -11 -13 -6 -81 -26 -175
-53 -16 -4 -64 -18 -105 -30 -41 -12 -97 -27 -125 -33 -27 -6 -52 -14 -55 -17
-3 -3 -21 -12 -40 -19 -62 -23 -129 -50 -152 -62 -10 -5 -24 -9 -31 -9 -7 0
-39 -13 -70 -30 -32 -16 -63 -30 -69 -30 -9 0 -142 -64 -198 -96 -14 -7 -33
-14 -42 -14 -10 0 -18 -4 -18 -8 0 -5 -18 -15 -40 -22 -22 -7 -40 -16 -40 -20
0 -3 -18 -14 -40 -24 -22 -10 -46 -23 -53 -29 -6 -7 -39 -25 -72 -42 -33 -16
-62 -32 -65 -36 -3 -3 -24 -16 -48 -28 -23 -12 -42 -25 -42 -30 0 -5 -13 -14
-30 -21 -16 -7 -30 -16 -30 -21 0 -5 -6 -9 -13 -9 -7 0 -22 -8 -33 -19 -11
-10 -30 -22 -42 -25 -12 -4 -22 -11 -22 -15 0 -5 -20 -21 -45 -37 -25 -15 -45
-32 -45 -36 0 -4 -6 -8 -13 -8 -8 0 -24 -9 -37 -20 -13 -11 -27 -20 -32 -20
-6 0 -24 -16 -41 -35 -17 -19 -34 -35 -39 -35 -7 0 -17 -8 -69 -55 -9 -8 -19
-15 -22 -15 -4 0 -15 -8 -26 -17 -10 -10 -46 -43 -80 -73 -200 -177 -358 -335
-491 -490 -19 -23 -47 -54 -63 -70 -15 -16 -27 -32 -27 -37 0 -5 -8 -16 -18
-24 -25 -23 -52 -58 -52 -67 0 -5 -15 -22 -33 -38 -19 -16 -36 -34 -38 -39
-13 -29 -52 -85 -60 -85 -5 0 -9 -6 -9 -13 0 -7 -16 -32 -35 -54 -19 -23 -35
-48 -35 -57 0 -9 -4 -16 -8 -16 -5 0 -15 -12 -23 -27 -8 -15 -22 -35 -31 -45
-10 -10 -18 -25 -18 -33 0 -8 -4 -15 -8 -15 -5 0 -18 -18 -31 -40 -12 -22 -26
-40 -31 -40 -4 0 -11 -12 -15 -27 -3 -14 -15 -38 -26 -51 -10 -14 -19 -31 -19
-38 0 -8 -4 -14 -10 -14 -5 0 -10 -6 -10 -12 0 -7 -9 -24 -20 -38 -11 -14 -20
-33 -20 -42 0 -10 -4 -18 -9 -18 -9 0 -61 -100 -61 -118 0 -6 -6 -17 -12 -24
-22 -23 -48 -75 -48 -96 0 -11 -7 -25 -15 -32 -8 -7 -15 -17 -15 -23 0 -6 -16
-45 -36 -86 -20 -42 -40 -85 -44 -96 -10 -26 -24 -62 -43 -105 -9 -19 -18 -52
-22 -72 -4 -21 -11 -38 -16 -38 -4 0 -11 -20 -15 -45 -3 -25 -15 -62 -25 -82
-11 -21 -19 -47 -19 -60 0 -12 -5 -25 -10 -28 -6 -3 -10 -14 -10 -24 0 -10 -7
-32 -15 -47 -8 -16 -18 -50 -21 -76 -4 -27 -10 -48 -15 -48 -5 0 -9 -15 -9
-34 0 -19 -5 -38 -10 -41 -6 -3 -10 -24 -10 -46 0 -21 -4 -39 -9 -39 -5 0 -12
-30 -16 -67 -4 -38 -13 -81 -21 -97 -8 -16 -14 -46 -14 -68 0 -21 -4 -38 -9
-38 -5 0 -12 -46 -16 -102 -4 -57 -13 -114 -21 -128 -26 -48 -58 -940 -34
-964 5 -5 10 -55 10 -112 0 -57 5 -115 12 -131 7 -15 18 -91 25 -168 16 -181
36 -314 50 -345 7 -14 15 -55 18 -92 4 -38 10 -68 15 -68 4 0 11 -18 14 -40 3
-22 9 -58 12 -80 3 -22 10 -40 15 -40 5 0 9 -11 9 -24 0 -12 5 -38 11 -57 10
-33 14 -43 38 -102 6 -15 11 -38 11 -50 0 -12 8 -36 19 -52 10 -17 21 -52 25
-78 4 -26 11 -47 15 -47 4 0 13 -24 21 -53 7 -28 16 -59 20 -67 4 -8 17 -35
29 -58 11 -24 21 -53 21 -65 0 -34 18 -6 23 34 2 20 16 53 32 73 35 46 40 46
13 1 -37 -64 -12 -47 34 22 50 75 72 113 63 113 -3 0 3 8 13 18 10 10 27 40
38 65 19 47 34 61 34 32 0 -8 5 -15 10 -15 6 0 10 -9 10 -20 0 -11 5 -20 10
-20 6 0 10 -13 10 -30 0 -16 5 -30 11 -30 7 0 8 -7 4 -18 -4 -9 -8 -22 -8 -29
0 -7 -3 -10 -7 -8 -4 2 -32 -34 -63 -82 -64 -97 -83 -163 -74 -258 5 -54 4
-58 -9 -41 -13 19 -14 19 -14 -7 0 -15 -4 -27 -10 -27 -5 0 -10 -7 -10 -15 0
-18 16 -20 24 -3 3 7 3 1 0 -14 -4 -18 0 -33 10 -43 9 -9 16 -23 16 -31 0 -19
52 -114 62 -114 4 0 8 -8 8 -17 0 -9 6 -24 14 -32 8 -9 27 -40 43 -69 15 -30
34 -66 42 -80 8 -15 17 -29 20 -32 3 -3 12 -17 20 -32 8 -15 21 -36 30 -45 9
-10 22 -30 30 -45 8 -16 18 -28 23 -28 4 0 8 -6 8 -13 0 -7 9 -23 20 -35 11
-12 20 -28 20 -36 0 -9 8 -20 17 -25 10 -5 27 -27 38 -48 19 -36 28 -48 68
-95 9 -12 17 -26 17 -32 0 -6 16 -25 35 -41 19 -17 35 -34 35 -39 0 -4 16 -24
35 -43 19 -19 35 -41 35 -49 0 -13 20 -19 45 -14 6 1 5 -4 -2 -11 -9 -9 -9
-15 0 -24 7 -7 30 -34 52 -59 22 -25 46 -46 53 -46 6 0 12 -6 12 -12 0 -19 87
-113 254 -275 28 -26 66 -65 86 -86 20 -20 40 -37 44 -37 6 0 26 -17 113 -97
13 -13 27 -23 31 -23 4 0 15 -8 23 -17 23 -26 58 -53 67 -53 5 0 18 -10 29
-22 28 -31 61 -58 72 -58 5 0 11 -3 13 -8 2 -4 44 -34 93 -67 50 -33 99 -68
109 -77 11 -10 24 -18 28 -18 5 0 18 -9 30 -20 12 -11 29 -20 37 -19 14 0 14
1 1 6 -8 4 -21 14 -28 25 -7 10 -20 18 -29 18 -19 0 -53 37 -53 59 0 16 25
106 73 270 l25 83 -45 32 c-25 17 -61 46 -81 64 -20 17 -42 32 -49 32 -7 0
-13 4 -13 8 0 5 -11 15 -25 22 -13 7 -27 21 -30 31 -3 10 -12 19 -19 21 -14 3
-107 80 -161 134 -17 17 -39 33 -48 37 -9 3 -17 13 -17 22 0 8 -4 15 -9 15
-11 0 -125 113 -236 235 -44 48 -96 105 -115 126 -19 21 -44 50 -55 65 -11 15
-26 33 -32 40 -7 7 -13 22 -13 33 l0 21 1260 0 c833 0 1260 3 1260 10 0 6 6
10 13 10 8 0 24 9 37 20 13 11 26 20 29 20 4 0 20 12 37 28 17 15 50 41 75 57
24 17 50 36 57 42 7 7 17 13 22 13 7 0 23 13 93 74 9 9 21 16 26 16 6 0 22 11
37 25 15 14 30 25 33 25 4 0 20 12 38 28 17 15 43 36 57 46 15 11 37 28 48 38
11 9 29 20 39 23 11 4 19 11 19 16 0 5 6 9 14 9 8 0 27 12 43 28 25 25 56 48
101 77 9 6 21 15 28 20 39 33 55 45 60 45 3 0 11 6 18 12 14 15 53 44 76 58
13 8 15 246 15 2045 l0 2037 -35 29 c-48 41 -53 45 -81 59 -13 7 -27 18 -31
24 -12 18 3 125 28 196 12 36 19 67 15 70 -5 3 -8 21 -8 40 -1 19 -4 66 -7
104 -6 69 -6 69 14 51 11 -10 23 -15 26 -12 4 4 -7 20 -25 36 -17 16 -34 43
-37 59 -4 18 -14 32 -26 35 -18 5 -17 10 20 67 35 55 39 70 41 130 2 53 -3 78
-18 109 -12 22 -21 47 -21 55 0 8 -11 38 -25 68 -31 65 -32 121 -5 148 11 11
27 20 36 20 24 0 12 33 -13 36 -13 2 -34 -6 -49 -20 -23 -19 -28 -33 -32 -83
-3 -38 0 -63 7 -67 14 -9 14 -26 1 -26 -5 0 -22 18 -36 40 -26 39 -29 77 -9
123 5 12 3 17 -8 17 -49 0 -35 -166 17 -209 17 -14 13 -56 -8 -79 -10 -10 -23
-8 -69 13 -32 15 -64 36 -72 48 -22 31 -57 82 -104 151 l-40 59 5 -53 c3 -45
11 -62 45 -102 22 -26 37 -52 34 -58 -3 -6 -51 -10 -108 -10 -60 -1 -118 -7
-141 -15 -44 -16 -60 -12 -98 23 -16 14 -28 21 -28 15 0 -7 -10 -13 -22 -15
-19 -2 -22 -8 -20 -30 3 -23 0 -27 -14 -21 -11 4 -15 2 -11 -4 9 -15 -67 1
-96 20 -13 9 -28 31 -32 49 -7 27 -9 29 -12 12 -2 -12 2 -38 11 -57 14 -34 13
-35 -7 -42 -20 -7 -20 -8 8 -15 25 -6 26 -8 7 -9 -13 0 -31 -8 -39 -17 -19
-18 -53 -12 -95 17 -19 14 -26 16 -22 6 3 -8 30 -26 60 -40 l56 -25 -39 -10
c-34 -9 -36 -11 -15 -17 33 -11 27 -22 -15 -27 -46 -6 -51 -3 -35 22 15 24 15
40 2 40 -5 0 -10 -6 -10 -13 0 -13 -102 -146 -123 -159 -6 -4 -558 -8 -1224
-8 l-1213 0 0 25 c0 14 4 25 9 25 9 0 20 16 53 80 14 26 20 35 87 113 23 27
41 53 41 58 0 5 10 20 23 33 12 12 31 35 42 51 54 75 314 347 465 485 39 36
94 86 122 113 28 26 54 47 57 47 3 0 23 16 43 35 20 19 41 35 47 35 5 0 22 13
38 28 15 16 48 42 73 58 25 16 54 37 64 47 11 9 23 17 27 17 4 0 21 14 39 30
18 17 38 30 46 30 8 0 14 4 14 8 0 5 12 15 28 23 15 8 29 16 32 19 3 3 16 11
30 18 44 22 69 38 88 55 10 10 24 17 30 17 7 0 12 5 12 10 0 6 8 10 19 10 10
0 29 8 42 18 13 9 51 31 84 47 33 17 62 32 65 35 9 9 133 70 142 70 6 0 22 8
36 19 15 10 44 21 65 25 20 4 37 11 37 15 0 5 11 12 25 15 14 4 25 11 25 16 0
6 13 10 29 10 16 0 36 7 45 15 8 8 37 20 65 27 28 6 51 15 51 20 0 4 11 8 24
8 14 0 27 4 30 8 3 4 28 14 56 22 28 8 53 18 56 22 3 4 16 8 29 8 13 0 26 4
29 9 3 5 20 11 38 14 74 13 154 33 173 43 11 7 53 15 93 19 39 4 72 11 72 16
0 5 19 9 43 9 23 0 50 7 60 14 11 9 60 17 123 21 57 4 104 11 104 15 0 16 146
22 669 26 355 3 538 1 545 -6 5 -5 38 -10 73 -10 35 0 63 -4 63 -9 0 -5 46
-12 103 -16 59 -4 111 -13 124 -21 12 -8 34 -14 48 -14 14 0 25 -4 25 -9 0 -4
29 -11 65 -15 36 -4 78 -12 93 -18 30 -13 118 -36 170 -45 18 -3 35 -9 38 -14
3 -5 16 -9 29 -9 13 0 27 -4 30 -10 3 -5 15 -10 26 -10 10 0 28 -4 39 -10 11
-5 29 -14 40 -20 11 -5 29 -10 40 -10 11 0 20 -4 20 -8 0 -5 23 -14 51 -20 28
-7 57 -19 65 -27 9 -8 27 -15 41 -15 25 0 76 -24 101 -47 7 -7 20 -13 29 -13
8 0 53 -18 99 -40 47 -22 89 -40 94 -40 6 0 10 -4 10 -10 0 -5 7 -10 15 -10 8
0 15 -4 15 -10 0 -5 7 -10 15 -10 17 0 52 -18 73 -37 7 -7 19 -13 26 -13 8 0
19 -6 25 -14 7 -8 26 -18 42 -21 16 -4 29 -11 29 -16 0 -5 6 -9 13 -9 8 0 22
-9 32 -20 10 -11 24 -20 32 -20 7 0 22 -9 33 -20 11 -11 27 -20 35 -20 8 0 15
-4 15 -10 0 -5 4 -10 10 -10 11 0 111 -63 131 -82 8 -8 35 -29 62 -48 26 -18
47 -37 47 -42 0 -4 7 -8 15 -8 8 0 32 -16 52 -35 20 -19 41 -35 45 -35 7 0 17
-8 69 -55 9 -8 18 -15 22 -15 3 0 34 -27 68 -60 34 -33 66 -60 70 -60 12 0
359 -347 359 -359 0 -5 7 -11 15 -15 8 -3 15 -9 15 -15 0 -5 17 -26 38 -48 55
-58 136 -154 141 -165 3 -10 12 -21 54 -71 10 -12 26 -34 35 -49 9 -16 20 -28
24 -28 4 0 8 -6 8 -14 0 -8 11 -24 25 -37 13 -13 25 -30 25 -36 0 -7 5 -13 10
-13 6 0 10 -13 10 -30 l0 -30 -348 0 c-337 0 -349 -1 -370 -20 -12 -12 -22
-30 -22 -40 0 -11 -4 -20 -10 -20 -5 0 -10 -5 -10 -10 0 -6 -9 -30 -20 -52
-11 -23 -20 -48 -20 -55 0 -7 -3 -13 -8 -13 -4 0 -13 -15 -20 -32 -41 -99 -55
-112 -89 -83 -59 51 -105 85 -158 119 -33 22 -64 45 -68 52 -4 8 -13 14 -19
14 -6 0 -24 14 -40 30 -15 17 -37 30 -48 30 -11 0 -20 4 -20 10 0 5 -20 23
-44 40 l-45 30 -571 0 -571 0 -33 -25 c-18 -14 -36 -25 -39 -25 -4 0 -16 -8
-26 -17 -25 -23 -38 -33 -81 -63 -19 -13 -41 -30 -48 -37 -6 -6 -21 -15 -32
-18 -11 -3 -20 -10 -20 -16 0 -5 -19 -21 -42 -36 -24 -16 -54 -38 -68 -51 -14
-12 -33 -25 -42 -28 -10 -3 -18 -10 -18 -15 0 -5 -11 -14 -25 -19 -14 -5 -25
-14 -25 -20 0 -5 -7 -10 -15 -10 -8 0 -31 -16 -51 -35 -19 -19 -42 -35 -50
-35 -8 0 -14 -4 -14 -8 0 -5 -22 -23 -50 -41 -27 -18 -50 -37 -50 -42 0 -5 -4
-9 -10 -9 -5 0 -19 -8 -29 -17 -36 -33 -50 -43 -76 -55 -14 -6 -25 -15 -25
-20 0 -4 -6 -8 -14 -8 -8 0 -25 -12 -38 -27 -12 -16 -35 -34 -50 -40 l-28 -13
0 -2039 c0 -1122 3 -2046 6 -2055 3 -9 10 -16 15 -16 6 0 19 -9 31 -20 12 -11
27 -20 34 -20 7 0 15 -9 19 -19 3 -11 15 -23 25 -26 11 -4 26 -12 32 -18 27
-25 87 -67 96 -67 6 0 12 -4 14 -9 3 -10 104 -91 113 -91 6 0 18 -9 54 -40 9
-8 33 -24 52 -34 19 -10 41 -27 49 -36 16 -18 104 -80 115 -80 3 0 23 -18 45
-40 22 -22 46 -40 54 -40 7 0 16 -7 20 -15 3 -8 11 -15 18 -15 7 -1 29 -14 48
-30 19 -17 38 -30 42 -30 4 0 21 -14 36 -30 16 -17 33 -30 38 -30 5 0 20 -9
34 -20 24 -19 49 -20 1168 -20 1112 0 1143 -1 1140 -19 -5 -31 -183 -234 -371
-422 -97 -99 -181 -179 -185 -179 -4 0 -33 -24 -65 -53 -32 -28 -72 -63 -88
-77 -17 -14 -40 -33 -50 -43 -10 -9 -22 -17 -25 -17 -4 0 -23 -15 -44 -33 -21
-17 -63 -50 -95 -72 -32 -22 -67 -48 -78 -58 -11 -9 -23 -17 -27 -17 -4 0 -20
-11 -35 -24 -15 -13 -40 -30 -54 -38 -14 -7 -28 -15 -31 -18 -3 -3 -17 -11
-32 -17 -16 -7 -28 -17 -28 -23 0 -5 -8 -10 -18 -10 -11 0 -27 -9 -36 -19 -10
-11 -29 -22 -44 -26 -15 -4 -29 -10 -32 -13 -6 -9 -38 -29 -70 -44 -14 -7 -27
-15 -30 -18 -11 -11 -51 -30 -64 -30 -8 0 -16 -3 -18 -8 -5 -12 -201 -109
-235 -117 -18 -3 -33 -10 -33 -14 0 -5 -20 -14 -45 -21 -25 -7 -48 -17 -51
-21 -3 -5 -14 -9 -24 -9 -10 0 -20 -4 -22 -9 -3 -9 -176 -72 -268 -97 -30 -8
-59 -19 -65 -25 -5 -5 -15 -9 -21 -9 -7 0 -25 -5 -41 -12 -32 -13 -116 -33
-218 -50 -38 -6 -72 -15 -75 -18 -8 -10 -230 -50 -277 -50 -23 0 -44 -4 -48
-9 -3 -5 -31 -12 -63 -16 -31 -3 -65 -10 -74 -15 -24 -14 -827 -13 -1003 1
-77 5 -158 15 -180 20 -22 6 -67 15 -100 19 -151 22 -247 40 -258 48 -7 5 -37
12 -67 16 -48 6 -95 18 -216 56 -17 6 -39 10 -50 10 -11 0 -24 4 -29 9 -6 5
-57 23 -115 42 -58 18 -107 36 -110 39 -3 4 -27 12 -54 19 -26 6 -55 18 -63
26 -7 8 -32 19 -55 26 -23 6 -57 19 -77 30 -20 10 -40 19 -44 19 -16 0 -107
45 -107 52 0 5 -6 8 -14 8 -14 0 -96 39 -106 51 -3 3 -21 11 -40 19 -19 7 -53
25 -75 40 -22 14 -61 36 -87 49 -27 12 -50 26 -53 31 -11 17 -109 62 -113 51
-2 -6 -10 -11 -17 -11 -23 0 -28 -20 -9 -41 16 -18 16 -25 5 -72 -7 -29 -26
-91 -43 -140 -28 -78 -33 -87 -52 -81 -18 5 -18 3 4 -12 14 -10 27 -21 30 -24
3 -4 32 -20 65 -36 33 -16 62 -32 65 -35 3 -4 26 -17 53 -29 26 -12 47 -25 47
-30 0 -4 18 -13 40 -20 22 -7 40 -16 40 -20 0 -4 16 -11 35 -14 19 -4 38 -13
42 -20 5 -7 26 -19 48 -26 22 -7 56 -24 75 -36 19 -13 41 -24 49 -24 8 0 41
-13 75 -28 34 -16 80 -34 104 -42 23 -7 42 -17 42 -22 0 -4 10 -8 23 -8 13 0
27 -4 32 -8 6 -5 30 -15 55 -22 25 -8 56 -20 70 -27 14 -7 38 -13 53 -13 15 0
38 -7 51 -15 12 -8 42 -19 67 -24 24 -5 62 -15 84 -21 22 -7 57 -14 78 -17 20
-3 37 -9 37 -14 0 -5 15 -9 34 -9 19 0 37 -4 40 -9 5 -8 20 -12 114 -27 20 -4
42 -10 47 -14 6 -4 46 -11 90 -15 44 -4 94 -13 110 -20 31 -14 206 -31 434
-44 92 -4 136 -11 139 -19 5 -17 389 -17 429 0 15 6 80 15 143 19 302 21 415
32 421 41 3 5 53 14 110 20 57 6 106 15 109 18 3 4 22 10 43 14 95 16 108 19
113 27 3 5 20 9 39 9 19 0 36 4 39 9 3 5 20 11 38 14 77 14 104 20 113 27 6 4
30 11 55 15 25 4 52 13 60 20 8 7 36 16 63 19 26 4 47 11 47 17 0 5 8 9 17 9
21 0 136 40 143 50 3 4 29 13 58 20 28 8 52 16 52 20 0 3 20 12 45 19 25 7 45
17 45 21 0 4 18 10 39 14 22 3 41 10 43 15 3 9 171 91 187 91 5 0 11 4 13 8 2
4 28 20 59 35 31 15 73 39 93 52 20 14 43 25 51 25 7 0 20 6 27 13 16 15 127
82 151 90 9 4 17 11 17 17 0 5 5 10 11 10 10 0 158 95 169 109 3 3 22 15 43
26 20 11 37 23 37 28 0 4 11 12 25 17 14 5 25 14 25 20 0 5 4 10 10 10 5 0 19
8 30 17 10 10 31 28 44 40 14 13 29 23 34 23 4 0 24 15 45 33 20 17 53 46 73
62 19 17 51 45 69 63 18 17 37 32 42 32 4 0 31 24 58 53 28 28 70 68 93 88 23
20 42 42 42 48 0 6 4 11 8 11 5 0 32 24 60 52 121 125 162 168 162 174 0 3 25
31 55 62 30 31 55 62 55 68 0 6 12 22 28 36 15 14 36 38 47 52 11 14 35 43 52
64 18 20 33 40 33 44 0 4 11 19 25 34 14 16 33 43 42 61 8 18 19 33 24 33 5 0
9 6 9 13 0 7 13 27 29 44 16 18 35 45 43 60 21 42 41 74 58 94 33 38 39 48 60
90 13 24 26 46 30 49 4 3 19 32 35 65 15 33 30 62 34 65 15 12 91 155 91 171
0 6 7 17 15 25 8 9 15 24 15 33 0 10 7 24 15 31 8 7 15 21 15 31 0 11 4 19 10
19 5 0 12 16 16 35 3 19 12 39 19 45 8 6 17 25 20 41 4 16 11 31 16 34 5 4 9
15 9 25 0 11 9 35 20 55 11 20 20 41 20 48 0 7 7 26 16 42 22 41 74 205 74
233 0 12 5 22 10 22 6 0 10 10 10 23 0 12 6 32 14 43 8 11 17 38 21 60 3 21
10 48 14 59 17 41 35 102 48 160 8 33 19 78 25 100 5 22 12 61 15 88 3 26 9
47 13 47 5 0 11 39 15 88 4 48 13 100 21 116 8 16 14 51 14 78 0 26 4 56 10
66 5 9 14 100 19 202 5 102 14 210 20 240 16 79 13 439 -4 498 -7 26 -16 126
-20 222 -4 96 -11 177 -16 178 -5 2 -9 30 -9 61 0 32 -6 71 -14 87 -8 16 -17
68 -21 117 -4 48 -11 87 -16 87 -5 0 -9 17 -9 38 -1 40 -21 126 -33 138 -4 4
-7 21 -7 38 -1 17 -9 56 -20 86 -11 30 -19 63 -20 73 0 9 -4 17 -9 17 -4 0
-11 23 -14 51 -4 28 -13 61 -20 73 -8 11 -17 41 -21 66 -4 24 -11 49 -15 55
-5 5 -20 48 -35 95 -14 47 -32 99 -40 115 -13 28 -19 44 -45 108 -17 41 -43
102 -62 143 -10 22 -19 46 -19 52 0 7 -4 12 -10 12 -5 0 -10 5 -10 11 0 18
-44 109 -52 109 -5 0 -8 7 -8 15 0 19 -74 161 -91 175 -4 3 -10 16 -14 30 -4
14 -13 32 -20 40 -7 8 -16 25 -19 38 -4 12 -11 22 -16 22 -4 0 -15 17 -23 38
-15 35 -32 62 -67 101 -8 10 -28 43 -44 74 -16 31 -32 57 -36 57 -5 0 -19 17
-31 38 -13 20 -31 46 -41 56 -10 11 -18 24 -18 28 0 5 -4 14 -10 21 -5 7 -29
37 -52 67 -53 69 -53 69 -83 106 -14 18 -25 36 -25 41 0 6 -11 15 -25 21 -14
6 -25 17 -25 24 0 7 -25 39 -55 72 -30 32 -55 60 -55 62 0 2 -15 19 -32 38
-57 59 -137 141 -150 153 -7 6 -29 29 -49 50 -20 21 -71 70 -113 108 -43 39
-102 94 -132 123 -30 28 -71 63 -92 76 -20 13 -46 33 -56 45 -11 11 -23 21
-29 21 -5 0 -17 8 -26 18 -9 10 -32 29 -51 42 -19 13 -39 30 -43 37 -4 7 -13
13 -20 13 -7 1 -28 14 -47 30 -19 17 -40 30 -47 30 -7 0 -13 4 -13 8 0 9 -92
72 -104 72 -4 0 -16 9 -28 20 -12 11 -28 20 -35 20 -7 0 -13 4 -13 10 0 5 -19
19 -42 31 -23 12 -48 28 -56 35 -7 8 -19 14 -26 14 -7 0 -25 9 -39 20 -14 11
-30 20 -37 20 -6 0 -26 11 -43 24 -18 13 -59 36 -92 52 -33 15 -62 31 -65 35
-3 4 -22 11 -42 17 -20 5 -46 19 -58 30 -11 10 -38 24 -60 31 -22 6 -40 16
-40 21 0 5 -18 13 -40 16 -22 4 -40 10 -40 14 0 4 -19 13 -42 20 -24 8 -45 17
-48 20 -3 3 -25 12 -50 20 -25 7 -63 21 -85 31 -22 9 -57 23 -78 29 -22 7 -51
18 -65 26 -15 8 -41 14 -57 14 -17 0 -35 4 -40 9 -13 12 -139 51 -164 51 -11
0 -22 4 -25 8 -3 5 -31 14 -63 21 -32 7 -67 17 -78 21 -27 11 -71 21 -125 27
-25 3 -47 9 -50 13 -3 4 -48 12 -100 18 -52 5 -96 15 -98 21 -2 6 -30 11 -67
11 -35 0 -65 4 -67 10 -2 6 -84 12 -198 16 -107 4 -202 10 -211 15 -24 12
-326 18 -404 8z m-805 -2319 c13 -9 13 -10 0 -10 -8 0 -22 5 -30 10 -13 9 -13
10 0 10 8 0 22 -5 30 -10z m77 -16 c-3 -3 -12 -4 -19 -1 -8 3 -5 6 6 6 11 1
17 -2 13 -5z m-112 -60 c21 -26 53 -53 71 -60 39 -16 101 -18 141 -4 l28 10
-24 -20 c-13 -11 -33 -20 -45 -21 -11 0 -29 -2 -39 -4 -19 -4 -72 15 -119 40
-40 23 -42 3 -3 -39 29 -32 34 -44 31 -81 -1 -24 -8 -51 -16 -60 -8 -9 -13
-33 -12 -53 3 -34 0 -38 -39 -57 -59 -28 -150 -89 -172 -114 -16 -21 -16 -23
7 -69 13 -26 38 -60 55 -76 17 -17 31 -33 31 -37 0 -13 -145 -149 -159 -149
-7 0 -40 15 -73 33 l-60 32 7 49 c3 26 8 84 11 127 5 74 8 82 38 114 39 39 78
109 68 121 -4 4 -1 4 6 0 16 -9 44 12 35 27 -3 5 5 18 18 28 26 20 11 25 -24
8 -16 -7 -14 -3 8 18 17 15 25 24 18 20 -6 -5 -20 -7 -30 -5 -14 3 -11 8 15
21 38 21 42 30 8 21 -20 -5 -24 -2 -21 13 2 10 4 21 4 25 1 4 27 35 58 68 42
46 67 64 99 72 37 10 41 14 33 30 -18 34 9 18 46 -28z m-267 -19 c-37 -34 -61
-85 -52 -110 4 -10 0 -15 -11 -15 -12 0 -15 -5 -10 -19 4 -14 -3 -25 -25 -41
-20 -14 -29 -28 -25 -38 3 -8 -2 -26 -11 -39 -8 -14 -13 -31 -10 -40 4 -8 -5
-28 -19 -45 -23 -27 -26 -56 -4 -42 5 3 -2 -11 -15 -30 -13 -20 -27 -60 -31
-89 -6 -43 -9 -48 -16 -29 -5 12 -13 22 -18 22 -5 0 -1 -23 10 -50 21 -55 24
-106 9 -130 -7 -11 -10 -1 -10 35 0 45 -3 52 -33 70 -17 12 -39 19 -47 18 -21
-5 -39 -36 -45 -78 -2 -20 -7 -40 -10 -45 -16 -26 71 1 91 28 12 16 13 15 14
-5 0 -14 -6 -23 -15 -23 -8 0 -29 -18 -46 -40 -18 -22 -38 -40 -44 -40 -8 0
-9 -15 -5 -49 3 -28 3 -48 -2 -45 -4 3 -8 11 -8 19 0 15 -30 49 -37 41 -8 -8
39 -105 54 -110 11 -5 13 -2 9 10 -4 10 -2 14 6 10 7 -3 21 -9 31 -12 21 -8
22 -26 1 -66 l-16 -31 -34 37 c-19 20 -34 43 -34 51 0 7 -5 15 -12 17 -7 3
-14 31 -16 74 -3 61 1 81 33 164 35 91 66 140 89 140 6 0 17 14 24 30 8 17 19
36 26 43 14 14 42 105 50 163 4 29 0 50 -14 77 -18 34 -18 41 2 38 11 -1 107
98 156 161 38 49 45 54 74 50 l32 -5 -36 -32z m615 -628 c9 -30 17 -58 17 -63
0 -6 -24 -16 -52 -23 -29 -8 -72 -22 -95 -32 -23 -11 -47 -19 -53 -19 -23 0 2
62 41 101 21 21 39 43 39 48 0 7 62 39 81 40 3 1 13 -23 22 -52z m-947 11
c-18 -26 -22 -17 -5 14 6 11 13 17 16 15 3 -3 -2 -16 -11 -29z m5794 -63 c8
-19 17 -35 21 -35 4 0 10 -20 13 -45 4 -25 11 -45 16 -45 10 0 40 -57 40 -78
0 -8 9 -33 19 -56 11 -23 27 -68 37 -101 9 -33 21 -64 26 -69 4 -6 8 -18 8
-28 0 -10 5 -18 10 -18 6 0 10 -13 10 -30 0 -16 5 -30 10 -30 6 0 10 -11 10
-25 0 -13 5 -37 11 -52 24 -60 27 -70 39 -125 6 -32 15 -60 20 -63 4 -3 12
-40 15 -83 4 -42 11 -79 14 -82 12 -8 32 -100 45 -200 7 -52 15 -102 18 -110
14 -33 29 -184 29 -294 0 -64 5 -116 10 -116 5 0 9 -135 9 -330 0 -213 -4
-330 -10 -330 -6 0 -10 -46 -10 -117 0 -118 -16 -279 -30 -298 -4 -5 -11 -53
-15 -105 -4 -52 -13 -108 -21 -124 -8 -16 -14 -44 -14 -63 0 -18 -4 -33 -9
-33 -5 0 -12 -28 -16 -62 -3 -35 -12 -76 -20 -93 -7 -16 -16 -48 -20 -70 -4
-22 -14 -55 -22 -74 -8 -19 -18 -51 -20 -73 -3 -21 -10 -41 -14 -44 -5 -3 -9
-12 -9 -20 0 -8 -9 -33 -19 -57 -11 -23 -27 -67 -36 -97 -9 -30 -25 -73 -36
-96 -10 -23 -19 -51 -19 -63 0 -11 -4 -21 -10 -21 -5 0 -10 -8 -10 -19 0 -10
-6 -24 -14 -30 -8 -7 -18 -26 -22 -44 -3 -17 -15 -46 -25 -64 -11 -19 -19 -40
-19 -48 0 -8 -4 -15 -9 -15 -5 0 -15 -20 -22 -45 -7 -25 -16 -45 -20 -45 -3 0
-23 -34 -43 -75 -68 -137 -66 -154 -66 589 0 365 -3 671 -6 680 -3 9 -12 16
-20 16 -8 0 -14 5 -14 10 0 7 -213 10 -620 10 -407 0 -620 -3 -620 -10 0 -5
-6 -10 -14 -10 -8 0 -17 -7 -20 -16 -3 -9 -6 -173 -6 -365 l0 -350 -302 5
c-296 4 -388 10 -388 26 0 4 -17 10 -37 13 -23 4 -43 15 -51 27 -7 11 -19 20
-27 20 -18 0 -97 84 -108 116 -5 13 -13 24 -18 24 -5 0 -9 7 -9 16 0 9 -9 27
-20 41 -20 25 -20 41 -20 1232 0 1191 0 1208 -20 1249 -11 23 -25 42 -30 42
-4 0 -15 6 -22 13 -7 6 -40 30 -73 52 -33 22 -73 52 -90 67 -16 16 -35 28 -41
28 -10 0 -54 45 -54 55 0 3 295 5 655 5 l655 0 0 -374 c0 -206 3 -381 6 -390
6 -14 68 -16 598 -16 l593 0 11 23 c6 12 13 42 16 67 7 58 23 169 36 245 6 33
13 80 16 105 3 25 9 54 14 65 5 11 12 47 15 80 14 153 17 175 25 175 4 0 11
55 15 123 4 67 12 131 19 142 6 11 17 67 24 125 7 58 16 136 21 175 5 38 14
71 20 73 6 2 11 19 11 38 0 47 31 47 50 -1z m-5060 -189 c0 -41 -17 -56 -70
-63 -31 -4 -40 -2 -40 9 0 9 7 21 15 28 8 7 15 19 15 26 0 14 59 44 73 37 4
-2 7 -19 7 -37z m577 22 c-3 -8 -6 -5 -6 6 -1 11 2 17 5 13 3 -3 4 -12 1 -19z
m-1157 -139 c41 -19 90 -41 108 -48 17 -8 32 -16 32 -18 0 -3 -18 -27 -41 -54
-22 -27 -38 -49 -35 -49 4 0 -1 -11 -10 -25 -8 -13 -12 -30 -8 -36 4 -8 3 -9
-4 -5 -8 5 -12 0 -12 -13 0 -18 3 -19 30 -9 35 12 80 65 80 95 0 11 11 32 24
46 20 21 29 25 48 18 20 -7 24 -17 28 -75 3 -37 10 -70 17 -74 16 -10 43 -87
43 -121 0 -15 9 -47 21 -70 28 -58 14 -71 -40 -37 -22 14 -44 26 -49 26 -5 0
-35 14 -67 30 -100 51 -114 32 -36 -52 143 -156 195 -218 222 -263 16 -27 29
-52 29 -55 0 -3 -21 -41 -46 -85 -43 -72 -48 -77 -60 -60 -8 10 -14 33 -14 51
0 20 -12 49 -35 80 -40 57 -117 180 -153 244 -60 108 -74 131 -78 128 -4 -5
63 -138 77 -152 5 -6 9 -15 9 -20 0 -6 -14 10 -30 37 -17 26 -32 47 -35 47 -2
0 5 -21 15 -46 11 -25 20 -50 20 -56 0 -10 33 -92 70 -173 55 -121 71 -175 52
-175 -4 0 -39 8 -77 19 -39 10 -89 21 -112 24 l-43 5 0 -1073 c0 -941 -2
-1075 -15 -1089 -8 -8 -15 -18 -15 -21 0 -37 -107 -168 -164 -202 -102 -60
-82 -58 -451 -58 l-340 0 -5 1375 c-3 756 -8 1382 -13 1390 -4 8 -29 29 -55
45 -49 31 -53 34 -116 90 -21 19 -45 35 -52 35 -8 0 -14 4 -14 9 0 5 -9 13
-20 16 -21 7 -50 32 -50 43 0 4 230 6 512 4 413 -2 515 -5 528 -16 8 -8 26
-17 40 -21 14 -4 37 -21 53 -36 16 -18 27 -23 27 -15 0 8 -5 16 -12 18 -8 3
-1 47 25 149 20 79 39 162 43 184 9 51 21 75 39 75 7 0 16 14 20 31 4 16 10
29 13 27 4 -2 41 -19 82 -39z m1141 -16 c-16 -31 -20 -34 -21 -15 0 12 4 22
10 22 5 0 13 12 17 27 3 16 8 23 10 16 2 -6 -5 -29 -16 -50z m-1307 -38 c-4
-8 -8 -15 -10 -15 -2 0 -4 7 -4 15 0 8 4 15 10 15 5 0 7 -7 4 -15z m-2726 -90
c9 -9 35 -31 56 -50 21 -19 44 -35 50 -35 6 0 26 -13 44 -30 18 -16 36 -30 40
-30 6 0 43 -30 104 -83 9 -8 25 -18 37 -22 12 -3 21 -10 21 -15 0 -5 9 -12 20
-15 49 -16 50 -24 51 -627 1 -619 -2 -591 49 -395 12 44 76 144 86 134 3 -3
-4 -28 -15 -56 -10 -28 -15 -51 -10 -51 12 0 1 -46 -24 -95 -51 -102 -66 -475
-19 -475 5 0 26 9 48 19 47 23 47 24 63 -89 12 -78 11 -90 -8 -150 -24 -75
-26 -110 -9 -157 16 -43 37 -43 123 2 37 20 69 34 71 32 2 -2 -7 -26 -20 -53
-92 -190 -275 -693 -307 -839 -7 -33 -15 -64 -18 -70 -3 -5 -8 211 -11 480 -4
401 -6 319 -8 -457 -1 -522 -5 -948 -10 -948 -8 0 -62 58 -62 67 0 11 -52 113
-58 113 -4 0 -13 15 -20 33 -21 50 -36 82 -43 87 -7 5 -84 166 -168 350 -11
25 -23 60 -27 78 -4 17 -10 32 -15 32 -5 0 -9 9 -9 20 0 11 -9 35 -20 55 -11
20 -20 44 -20 55 0 11 -4 20 -10 20 -5 0 -10 9 -10 20 0 10 -5 32 -11 47 -6
15 -15 37 -20 48 -4 11 -11 38 -14 60 -4 21 -13 51 -21 66 -7 15 -17 52 -20
83 -4 31 -11 56 -15 56 -5 0 -9 9 -9 20 0 12 -6 33 -14 48 -14 28 -66 316 -66
368 0 17 -4 34 -9 40 -10 10 -19 94 -27 258 -4 82 -9 113 -21 121 -12 9 -16
56 -20 293 -5 209 -3 282 5 282 8 0 12 22 12 64 0 36 4 67 9 70 5 3 9 57 10
118 0 62 5 129 11 148 5 19 10 56 10 82 0 26 5 50 10 53 6 3 10 23 10 43 0 20
8 75 16 122 9 47 22 117 29 155 12 67 28 120 46 157 5 9 11 36 15 60 3 24 14
64 25 90 10 26 19 60 19 77 0 17 4 31 9 31 5 0 15 23 22 50 14 54 33 64 67 35z
m2672 -97 c-16 -73 -41 -150 -46 -145 -3 2 5 40 17 83 12 44 24 89 27 102 2
13 7 21 9 18 3 -3 0 -29 -7 -58z m5348 -615 c-10 -2 -28 -2 -40 0 -13 2 -5 4
17 4 22 1 32 -1 23 -4z m-90 -10 c-16 -2 -40 -2 -55 0 -16 2 -3 4 27 4 30 0
43 -2 28 -4z m-155 -13 c-35 -8 -188 -21 -163 -14 25 7 133 22 165 22 l30 0
-32 -8z m-1795 -147 c-10 -2 -26 -2 -35 0 -10 3 -2 5 17 5 19 0 27 -2 18 -5z
m-131 -9 c-3 -3 -12 -4 -19 -1 -8 3 -5 6 6 6 11 1 17 -2 13 -5z m-104 -11 c-7
-2 -19 -2 -25 0 -7 3 -2 5 12 5 14 0 19 -2 13 -5z m-2536 -294 c40 -11 85 -26
100 -34 15 -8 34 -15 41 -15 7 0 20 -4 30 -10 9 -5 46 -21 81 -36 199 -81 536
-300 743 -483 l38 -33 0 -90 0 -89 -41 33 c-23 18 -58 47 -78 64 -57 48 -233
176 -282 205 -24 15 -89 55 -144 91 -55 35 -131 81 -170 102 -38 21 -113 65
-165 98 -52 33 -104 65 -115 71 -98 58 -175 111 -195 132 l-25 26 55 -6 c30
-4 87 -16 127 -26z m-290 -485 c32 -18 92 -50 133 -70 41 -20 91 -47 110 -59
19 -12 98 -55 175 -95 77 -41 180 -98 228 -127 48 -29 91 -53 95 -53 4 0 53
-31 110 -69 114 -76 244 -188 273 -235 56 -92 -8 -93 -188 -2 -90 45 -147 95
-159 141 -7 25 -27 40 -139 102 -50 28 -106 59 -125 70 -102 58 -172 93 -184
93 -7 0 -21 9 -31 20 -10 11 -23 20 -30 20 -6 0 -25 15 -41 33 -16 17 -44 43
-62 57 -178 134 -242 191 -242 214 0 17 2 18 9 6 6 -8 36 -29 68 -46z m1853
-577 c11 -48 24 -96 30 -107 9 -17 6 -20 -27 -29 -21 -5 -55 -12 -75 -16 l-38
-6 0 126 c0 120 1 125 19 116 27 -15 31 -6 32 73 l1 71 20 -70 c10 -38 28
-110 38 -158z m-1100 -236 c0 -10 61 -33 92 -36 10 -1 21 -5 25 -10 5 -4 0 -5
-9 -2 -21 8 -24 -6 -4 -22 11 -9 15 -9 18 1 3 9 6 9 12 0 7 -12 -5 -19 -61
-36 -13 -4 -23 -3 -23 2 0 6 -15 33 -34 61 -19 28 -30 51 -25 51 5 0 9 -4 9
-9z m-3793 -1213 c-3 -7 -5 -2 -5 12 0 14 2 19 5 13 2 -7 2 -19 0 -25z m1729
-135 c22 -5 47 -28 83 -73 28 -36 136 -150 239 -254 126 -127 179 -186 162
-181 l-25 6 28 -23 c72 -59 117 -101 117 -110 0 -5 -20 7 -44 27 -42 34 -144
80 -154 70 -3 -3 17 -14 44 -26 50 -22 94 -55 94 -72 0 -5 -15 2 -32 15 -18
14 -46 28 -63 32 -28 6 -29 5 -11 -9 11 -8 26 -15 33 -15 7 0 13 -7 13 -15 0
-13 -20 -15 -137 -13 l-137 3 -2 63 c-1 58 0 62 16 47 9 -8 20 -15 23 -15 14
0 6 19 -28 61 -19 24 -48 72 -64 105 -16 34 -51 95 -79 135 -27 41 -59 92 -71
114 -12 22 -35 60 -51 85 -35 55 -36 64 -7 57 12 -3 36 -10 53 -14z m-979
-1145 c-3 -8 -6 -5 -6 6 -1 11 2 17 5 13 3 -3 4 -12 1 -19z m314 -185 c-12
-20 -14 -14 -5 12 4 9 9 14 11 11 3 -2 0 -13 -6 -23z m-11 -53 c0 -5 -2 -10
-4 -10 -3 0 -8 5 -11 10 -3 6 -1 10 4 10 6 0 11 -4 11 -10z m1238 -540 c2 -6
11 -10 20 -10 16 0 45 -33 48 -55 1 -5 2 -15 3 -20 0 -6 17 -19 37 -30 35 -19
36 -20 13 -25 -22 -6 -20 -10 44 -72 37 -37 63 -70 57 -73 -6 -3 -22 3 -36 14
-15 12 -32 21 -38 21 -6 0 -3 -5 7 -11 10 -6 16 -18 13 -27 -6 -20 7 -38 49
-71 28 -22 29 -23 5 -16 -14 4 -41 18 -60 30 -19 12 -56 30 -82 41 -53 21 -63
34 -20 26 44 -8 19 8 -34 21 -32 8 -50 18 -52 30 -3 14 4 17 32 17 44 0 45 12
7 46 -17 15 -27 32 -24 42 6 25 -51 75 -99 87 -54 14 -58 29 -11 42 42 12 116
8 121 -7z m447 -550 c3 -5 1 -10 -4 -10 -6 0 -11 5 -11 10 0 6 2 10 4 10 3 0
8 -4 11 -10z"/>
<path d="M3482 6343 c-8 -3 -6 -10 8 -21 11 -10 26 -30 35 -47 13 -27 15 -28
15 -7 0 12 -4 22 -10 22 -5 0 -10 7 -10 15 0 8 -4 15 -9 15 -5 0 -11 6 -13 13
-2 8 -9 12 -16 10z"/>
<path d="M3550 6225 c0 -5 5 -17 10 -25 5 -8 10 -10 10 -5 0 6 -5 17 -10 25
-5 8 -10 11 -10 5z"/>
<path d="M2706 2401 c9 -9 94 -41 94 -36 0 2 -16 12 -36 24 -36 21 -77 29 -58
12z"/>
<path d="M461 3102 c-1 -12 18 -52 30 -62 3 -3 9 -18 13 -34 4 -16 14 -39 22
-50 15 -20 15 -19 9 14 -4 19 -11 37 -15 40 -3 3 -13 20 -21 38 -8 17 -17 32
-21 32 -3 0 -9 8 -11 18 -3 9 -5 11 -6 4z"/>
<path d="M2422 1238 c3 -7 13 -15 24 -17 16 -3 17 -1 5 13 -16 19 -34 21 -29
4z"/>
<path d="M2470 1209 c0 -16 26 -39 44 -39 9 0 16 5 16 10 0 6 -7 10 -15 10 -8
0 -15 4 -15 9 0 5 -7 11 -15 15 -8 3 -15 1 -15 -5z"/>
<path d="M2550 1145 c0 -9 6 -12 15 -9 8 4 15 7 15 9 0 2 -7 5 -15 9 -9 3 -15
0 -15 -9z"/>
</g>
</svg>
